<svg 
 xmlns="http://www.w3.org/2000/svg"
 xmlns:xlink="http://www.w3.org/1999/xlink"
 width="55px" height="31px">
<path fill-rule="evenodd"  fill="rgb(255, 148, 0)"
 d="M51.060,28.533 C48.336,29.729 45.138,28.500 43.930,25.794 C42.826,23.318 43.781,20.470 46.034,19.084 C45.750,18.768 45.497,18.419 45.316,18.013 C44.691,16.612 44.921,15.060 45.760,13.898 C45.243,13.538 44.807,13.048 44.533,12.434 C44.230,11.754 44.158,11.029 44.283,10.349 C43.272,10.074 42.384,9.383 41.928,8.360 C41.752,7.967 41.668,7.559 41.640,7.153 C40.230,7.182 38.869,6.384 38.262,5.024 C37.458,3.220 38.280,1.103 40.096,0.307 C41.913,-0.491 44.045,0.329 44.850,2.132 C45.025,2.526 45.110,2.935 45.137,3.340 C46.548,3.311 47.908,4.109 48.515,5.468 C48.818,6.149 48.890,6.873 48.765,7.554 C49.776,7.827 50.664,8.519 51.120,9.542 C51.577,10.566 51.495,11.684 51.019,12.610 C51.868,13.027 52.588,13.715 53.001,14.639 C53.736,16.287 53.296,18.146 52.059,19.328 C52.794,19.864 53.416,20.572 53.811,21.457 C55.018,24.163 53.784,27.337 51.060,28.533 ZM42.654,3.096 C42.386,2.495 41.676,2.222 41.070,2.488 C40.464,2.754 40.190,3.459 40.459,4.060 C40.728,4.663 41.438,4.935 42.043,4.669 C42.649,4.404 42.923,3.699 42.654,3.096 ZM46.320,6.432 C46.051,5.830 45.342,5.558 44.735,5.823 C44.130,6.089 43.855,6.793 44.124,7.396 C44.393,7.999 45.102,8.271 45.708,8.004 C46.314,7.738 46.589,7.035 46.320,6.432 ZM48.925,10.506 C48.657,9.904 47.947,9.631 47.341,9.897 C46.735,10.163 46.461,10.868 46.730,11.469 C46.997,12.072 47.708,12.345 48.314,12.078 C48.920,11.813 49.193,11.108 48.925,10.506 ZM50.805,15.603 C50.403,14.700 49.339,14.291 48.429,14.691 C47.520,15.089 47.109,16.146 47.512,17.049 C47.915,17.952 48.979,18.361 49.889,17.961 C50.798,17.563 51.208,16.506 50.805,15.603 ZM51.615,22.421 C50.943,20.915 49.170,20.233 47.654,20.898 C46.138,21.564 45.454,23.325 46.126,24.830 C46.798,26.337 48.571,27.018 50.087,26.352 C51.603,25.686 52.287,23.926 51.615,22.421 ZM35.593,27.118 C31.567,28.886 28.045,28.075 24.936,27.362 C22.216,26.738 19.866,26.197 17.304,27.321 L11.815,29.731 C7.577,31.591 2.602,29.680 0.723,25.470 C-1.155,21.260 0.765,16.322 5.003,14.461 L25.862,5.305 C31.916,2.649 39.024,5.379 41.706,11.393 C44.389,17.406 41.647,24.460 35.593,27.118 Z"/>
</svg>