<svg 
 xmlns="http://www.w3.org/2000/svg"
 xmlns:xlink="http://www.w3.org/1999/xlink"
 width="55px" height="31px">
<path fill-rule="evenodd"  fill="rgb(255, 255, 255)"
 d="M51.665,28.533 C48.941,29.729 45.743,28.500 44.536,25.794 C43.431,23.318 44.386,20.470 46.639,19.084 C46.355,18.768 46.102,18.419 45.921,18.013 C45.296,16.612 45.526,15.060 46.365,13.898 C45.848,13.538 45.412,13.048 45.138,12.434 C44.835,11.754 44.764,11.029 44.889,10.349 C43.878,10.074 42.989,9.383 42.533,8.360 C42.358,7.967 42.273,7.559 42.245,7.153 C40.835,7.182 39.475,6.384 38.868,5.024 C38.063,3.220 38.885,1.103 40.702,0.307 C42.518,-0.491 44.650,0.329 45.455,2.132 C45.631,2.526 45.716,2.935 45.743,3.340 C47.154,3.311 48.513,4.109 49.120,5.468 C49.424,6.149 49.495,6.873 49.370,7.554 C50.381,7.827 51.269,8.519 51.726,9.542 C52.182,10.566 52.100,11.684 51.624,12.610 C52.473,13.027 53.193,13.715 53.606,14.639 C54.342,16.287 53.901,18.146 52.664,19.328 C53.400,19.864 54.021,20.572 54.416,21.457 C55.623,24.163 54.389,27.337 51.665,28.533 ZM43.260,3.096 C42.991,2.495 42.282,2.222 41.676,2.488 C41.070,2.754 40.795,3.459 41.064,4.060 C41.333,4.663 42.043,4.935 42.649,4.669 C43.254,4.404 43.529,3.699 43.260,3.096 ZM46.925,6.432 C46.657,5.830 45.947,5.558 45.341,5.823 C44.735,6.089 44.460,6.793 44.730,7.396 C44.998,7.999 45.708,8.271 46.314,8.004 C46.919,7.738 47.194,7.035 46.925,6.432 ZM49.530,10.506 C49.262,9.904 48.552,9.631 47.946,9.897 C47.340,10.163 47.066,10.868 47.335,11.469 C47.603,12.072 48.313,12.345 48.919,12.078 C49.525,11.813 49.799,11.108 49.530,10.506 ZM51.411,15.603 C51.009,14.700 49.944,14.291 49.034,14.691 C48.125,15.089 47.714,16.146 48.118,17.049 C48.521,17.952 49.584,18.361 50.494,17.961 C51.404,17.563 51.814,16.506 51.411,15.603 ZM52.221,22.421 C51.549,20.915 49.775,20.233 48.259,20.898 C46.744,21.564 46.060,23.325 46.731,24.830 C47.403,26.337 49.177,27.018 50.692,26.352 C52.208,25.686 52.893,23.926 52.221,22.421 ZM36.198,27.118 C32.172,28.886 28.650,28.075 25.542,27.362 C22.821,26.738 20.471,26.197 17.909,27.321 L12.420,29.731 C8.182,31.591 3.207,29.680 1.329,25.470 C-0.550,21.260 1.370,16.322 5.608,14.461 L26.467,5.305 C32.521,2.649 39.629,5.379 42.312,11.393 C44.994,17.406 42.252,24.460 36.198,27.118 ZM40.115,12.355 C37.965,7.537 32.290,5.357 27.440,7.486 C25.228,8.458 8.371,15.857 6.581,16.642 C3.549,17.974 2.181,21.494 3.524,24.505 C4.868,27.517 8.415,28.879 11.447,27.549 C14.102,26.384 14.741,26.103 16.936,25.139 C23.523,22.248 28.638,27.827 35.225,24.936 C40.076,22.806 42.266,17.175 40.115,12.355 Z"/>
</svg>