<svg xmlns="http://www.w3.org/2000/svg" width="34.1" height="33.97" viewBox="0 0 34.1 33.97">
  <defs>
    <style>
      .cls-1 {
        fill: #fff;
        fill-rule: evenodd;
      }
    </style>
  </defs>
  <path id="Forma_1" data-name="Forma 1" class="cls-1" d="M1610.04,9389.52h-15.28a9.4,9.4,0,0,0-9.4,9.38v15.23a9.4,9.4,0,0,0,9.4,9.38h15.28a9.4,9.4,0,0,0,9.41-9.38V9398.9A9.406,9.406,0,0,0,1610.04,9389.52Zm6.39,24.61a6.391,6.391,0,0,1-6.39,6.37h-15.28a6.382,6.382,0,0,1-6.38-6.37V9398.9a6.374,6.374,0,0,1,6.38-6.36h15.28a6.383,6.383,0,0,1,6.39,6.36v15.23h0Zm-14.03-16.37a8.755,8.755,0,1,0,8.79,8.76A8.781,8.781,0,0,0,1602.4,9397.76Zm0,14.5a5.745,5.745,0,1,1,5.76-5.74A5.764,5.764,0,0,1,1602.4,9412.26Zm9.16-17.06a2.215,2.215,0,1,0,0,4.43,2.27,2.27,0,0,0,1.57-.65,2.209,2.209,0,0,0,0-3.13A2.252,2.252,0,0,0,1611.56,9395.2Z" transform="translate(-1585.34 -9389.53)"/>
</svg>
