<svg xmlns="http://www.w3.org/2000/svg" width="117" height="112" viewBox="0 0 117 112">
  <defs>
    <style>
      .cls-1 {
        fill: #44b5f0;
        fill-rule: evenodd;
      }
    </style>
  </defs>
  <path class="cls-1" d="M1632.76,3512.58h-50.64v-2.95a2.62,2.62,0,1,0-5.24,0v2.95h-50.64a5.256,5.256,0,0,0-5.24,5.26v4.87a5.256,5.256,0,0,0,5.24,5.26h0.71v59.04a5.264,5.264,0,0,0,5.25,5.26h44.68v7.71l-19.42,14.28a2.622,2.622,0,1,0,3.1,4.23l16.32-12v9.88a2.62,2.62,0,1,0,5.24,0v-9.88l16.32,12a2.57,2.57,0,0,0,1.55.51,2.621,2.621,0,0,0,1.55-4.74l-19.42-14.28v-7.71h44.68a5.264,5.264,0,0,0,5.25-5.26v-59.04h0.71a5.256,5.256,0,0,0,5.24-5.26v-4.87A5.256,5.256,0,0,0,1632.76,3512.58Zm-5.96,74.43h-94.6v-59.04h94.6v59.04h0Zm5.96-64.3H1526.24v-4.87h106.52v4.87h0Zm-53.31,12.86a2.366,2.366,0,0,0-2.36,2.37v18.13H1559a2.364,2.364,0,0,0-2.36,2.36A22.81,22.81,0,1,0,1579.45,3535.57Zm0,40.99a18.137,18.137,0,0,1-17.94-15.76h17.94a2.366,2.366,0,0,0,2.36-2.37v-17.97A18.13,18.13,0,0,1,1579.45,3576.56Zm-7.98-43.43a17.306,17.306,0,0,0-17.27,17.3,2.366,2.366,0,0,0,2.36,2.37h14.91a2.366,2.366,0,0,0,2.36-2.37v-14.94A2.364,2.364,0,0,0,1571.47,3533.13Zm-2.36,14.94h-9.97a12.6,12.6,0,0,1,9.97-9.99v9.99Z" transform="translate(-1521 -3507)"/>
</svg>
