<svg xmlns="http://www.w3.org/2000/svg" width="146" height="100" viewBox="0 0 146 100">
  <defs>
    <style>
      .cls-1 {
        fill: #44b5f0;
        stroke: #fff;
        stroke-width: 1px;
        fill-rule: evenodd;
      }
    </style>
  </defs>
  <path id="Прямоугольник_скругл._углы_602" data-name="Прямоугольник, скругл. углы 602" class="cls-1" d="M1341.61,3591.32h-35.27a3.79,3.79,0,0,0-3.81,3.78l-0.03.71-19.39-.03v-0.68a3.8,3.8,0,0,0-3.82-3.78h-35.21a3.78,3.78,0,1,0,0,7.56h32.11a7.683,7.683,0,0,0,6.95,4.46h19.36a7.592,7.592,0,0,0,6.94-4.46h32.14a3.8,3.8,0,0,0,3.82-3.78A3.754,3.754,0,0,0,1341.61,3591.32Zm16.8-3.56h-6.88v-65.34a1.343,1.343,0,0,0-.03-0.35,9.935,9.935,0,0,0-9.82-9.07H1237.02a9.483,9.483,0,0,0-9.52,9.42v65.34h-6.85a3.63,3.63,0,0,0-3.65,3.61v6.81a13.9,13.9,0,0,0,13.97,13.82h117.06a13.9,13.9,0,0,0,13.97-13.82v-6.81A3.542,3.542,0,0,0,1358.41,3587.76Zm-3.62,10.42a6.673,6.673,0,0,1-6.7,6.63H1231a6.7,6.7,0,0,1-6.73-6.63v-3.2h6.85a3.624,3.624,0,0,0,3.65-3.61v-68.95a2.243,2.243,0,0,1,2.25-2.23h104.66a2.732,2.732,0,0,1,2.58,2.43v68.72a3.643,3.643,0,0,0,3.65,3.61h6.88v3.23Zm-70.98-62.09h36.66a2.006,2.006,0,0,1,2,2v1.5a2,2,0,0,1-2,2h-36.66a2,2,0,0,1-2-2v-1.5A2.006,2.006,0,0,1,1283.81,3536.09Zm0,12.1h44.35a2,2,0,0,1,2,2v1.5a2.006,2.006,0,0,1-2,2h-44.35a2.006,2.006,0,0,1-2-2v-1.5A2,2,0,0,1,1283.81,3548.19Zm0,12.12h25.66a2.006,2.006,0,0,1,2,2v1.5a2,2,0,0,1-2,2h-25.66a2,2,0,0,1-2-2v-1.5A2.006,2.006,0,0,1,1283.81,3560.31Zm-38.44-24.22h25.66a2,2,0,0,1,2,2v14.72a1.993,1.993,0,0,1-2,2h-25.66a2,2,0,0,1-2-2v-14.72A2.006,2.006,0,0,1,1245.37,3536.09Z" transform="translate(-1216.5 -3512.5)"/>
</svg>
