<svg xmlns="http://www.w3.org/2000/svg" width="24.59" height="24.53" viewBox="0 0 24.59 24.53">
  <defs>
    <style>
      .cls-1 {
        fill: #fff;
        fill-rule: evenodd;
      }
    </style>
  </defs>
  <path id="Forma_1_копия_4" data-name="Forma 1 копия 4" class="cls-1" d="M1255.63,9523.74l-3.44-3.42a2.287,2.287,0,0,0-3.8.86,2.334,2.334,0,0,1-2.7,1.46c-2.46-.61-5.77-3.79-6.38-6.35a2.213,2.213,0,0,1,1.47-2.69,2.272,2.272,0,0,0,.86-3.79l-3.44-3.43a2.466,2.466,0,0,0-3.31,0l-2.33,2.32c-2.33,2.45.24,8.93,6.01,14.68s12.27,8.43,14.73,5.99l2.33-2.33A2.432,2.432,0,0,0,1255.63,9523.74Z" transform="translate(-1231.69 -9505.75)"/>
</svg>
