<svg xmlns="http://www.w3.org/2000/svg" width="35.69" height="21.03" viewBox="0 0 35.69 21.03">
  <defs>
    <style>
      .cls-1 {
        fill: #fff;
        fill-rule: evenodd;
      }
    </style>
  </defs>
  <path id="Forma_1" data-name="Forma 1" class="cls-1" d="M1516.06,9414.63l-0.12-.24a19.083,19.083,0,0,0-3.55-4.25l-0.04-.04-0.02-.02-0.02-.02h-0.02c-0.79-.78-1.29-1.3-1.5-1.57a1.514,1.514,0,0,1-.26-1.56,14.524,14.524,0,0,1,1.67-2.52c0.51-.68.91-1.22,1.21-1.63q3.21-4.425,2.78-5.65l-0.11-.19a1.028,1.028,0,0,0-.57-0.32,3.01,3.01,0,0,0-1.19-.05l-5.35.04a0.67,0.67,0,0,0-.37.01l-0.25.06-0.09.05-0.07.06a0.635,0.635,0,0,0-.21.2,1.48,1.48,0,0,0-.18.33,33.2,33.2,0,0,1-1.99,4.33c-0.46.79-.88,1.48-1.27,2.06a9.506,9.506,0,0,1-.96,1.29,5.778,5.778,0,0,1-.71.66,0.631,0.631,0,0,1-.48.21c-0.11-.02-0.22-0.05-0.32-0.07a1.368,1.368,0,0,1-.42-0.47,2.388,2.388,0,0,1-.21-0.75,6.013,6.013,0,0,1-.06-0.78c-0.01-.22-0.01-0.53.01-0.92s0.01-.67.01-0.81q0-.735.03-1.59c0.02-.57.04-1.02,0.05-1.35s0.02-.68.02-1.06a4.742,4.742,0,0,0-.07-0.87,3.412,3.412,0,0,0-.19-0.62,1.086,1.086,0,0,0-.38-0.46,2.3,2.3,0,0,0-.63-0.26,12.663,12.663,0,0,0-2.51-.25,11.74,11.74,0,0,0-4.44.47,2.509,2.509,0,0,0-.7.57c-0.23.28-.26,0.44-0.1,0.46a2.247,2.247,0,0,1,1.58.83l0.12,0.23a4.415,4.415,0,0,1,.26.88,9.473,9.473,0,0,1,.16,1.4,16.043,16.043,0,0,1,0,2.41c-0.06.66-.12,1.18-0.17,1.55a3.464,3.464,0,0,1-.25.91,4.252,4.252,0,0,1-.23.42,0.467,0.467,0,0,1-.09.1,1.426,1.426,0,0,1-.5.09,1.111,1.111,0,0,1-.63-0.27,4.774,4.774,0,0,1-.78-0.74,10.992,10.992,0,0,1-.9-1.31c-0.33-.57-0.68-1.23-1.04-2l-0.29-.56c-0.19-.36-0.44-0.88-0.77-1.57s-0.6-1.34-.85-1.99a1.289,1.289,0,0,0-.45-0.61l-0.09-.06a1.306,1.306,0,0,0-.3-0.16,1.551,1.551,0,0,0-.42-0.12l-5.1.03a1.289,1.289,0,0,0-1.06.37l-0.07.11a0.629,0.629,0,0,0-.06.31,1.468,1.468,0,0,0,.12.52c0.74,1.8,1.55,3.55,2.42,5.23s1.63,3.03,2.28,4.05,1.3,1.99,1.97,2.9,1.11,1.5,1.33,1.75a7.557,7.557,0,0,0,.51.58l0.46,0.46a10.9,10.9,0,0,0,1.31,1.1,21.31,21.31,0,0,0,1.92,1.27,9.891,9.891,0,0,0,2.44,1.02,8.271,8.271,0,0,0,2.71.32h2.14a1.463,1.463,0,0,0,.98-0.42l0.08-.1a1.685,1.685,0,0,0,.14-0.36,2.146,2.146,0,0,0,.06-0.53,6.976,6.976,0,0,1,.12-1.49,4.09,4.09,0,0,1,.32-0.99,2.3,2.3,0,0,1,.4-0.57,1.89,1.89,0,0,1,.31-0.28,1.125,1.125,0,0,0,.15-0.07,1.16,1.16,0,0,1,1.05.3,6.33,6.33,0,0,1,1.14,1.12c0.35,0.44.77,0.93,1.27,1.49a9.248,9.248,0,0,0,1.3,1.23l0.37,0.23a4.752,4.752,0,0,0,.97.42,2.038,2.038,0,0,0,1.04.1l4.76-.08a2.073,2.073,0,0,0,1.09-.24,0.965,0.965,0,0,0,.47-0.53,1.608,1.608,0,0,0,.01-0.66A3.347,3.347,0,0,0,1516.06,9414.63Z" transform="translate(-1480.56 -9395.63)"/>
</svg>
