<svg xmlns="http://www.w3.org/2000/svg" width="105" height="105" viewBox="0 0 105 105">
  <defs>
    <style>
      .cls-1 {
        fill: #44b5f0;
        fill-rule: evenodd;
      }
    </style>
  </defs>
  <path id="Forma_1" data-name="Forma 1" class="cls-1" d="M1331.76,3806.81a12.28,12.28,0,0,0-4.44-17.54,37.863,37.863,0,0,0-15.48-25.86,15.42,15.42,0,0,0-11.04-12.38,12.3,12.3,0,1,0-20.6,0,15.42,15.42,0,0,0-11.04,12.38,37.863,37.863,0,0,0-15.48,25.86,12.28,12.28,0,0,0-4.44,17.54,15.394,15.394,0,0,0-11.24,14.81v12.3a3.081,3.081,0,0,0,3.08,3.08h36.91a3.081,3.081,0,0,0,3.08-3.08v-4.3a44.1,44.1,0,0,0,18.86,0v4.3a3.081,3.081,0,0,0,3.08,3.08h36.91a3.081,3.081,0,0,0,3.08-3.08v-12.3A15.394,15.394,0,0,0,1331.76,3806.81Zm-4.14-6.72a6.155,6.155,0,1,1-6.15-6.16A6.158,6.158,0,0,1,1327.62,3800.09Zm-37.12-61.94a6.155,6.155,0,1,1-6.15,6.15A6.158,6.158,0,0,1,1290.5,3738.15Zm-15.38,27.69a9.24,9.24,0,0,1,9.23-9.23h12.3a9.24,9.24,0,0,1,9.23,9.23v9.23h-30.76v-9.23Zm-15.59,28.09a6.155,6.155,0,1,1-6.15,6.16A6.163,6.163,0,0,1,1259.53,3793.93Zm15.38,36.92h-30.76v-9.23a9.24,9.24,0,0,1,9.23-9.23h12.31a9.238,9.238,0,0,1,9.22,9.23v9.23Zm25.02-9.23v1.64a36.763,36.763,0,0,1-18.86,0v-1.64a15.405,15.405,0,0,0-11.24-14.81,12.187,12.187,0,0,0,2.01-6.72,12.318,12.318,0,0,0-11.68-12.29,32.252,32.252,0,0,1,8.81-16.21v6.55a3.073,3.073,0,0,0,3.07,3.08h36.92a3.073,3.073,0,0,0,3.07-3.08v-6.55a32.252,32.252,0,0,1,8.81,16.21,12.318,12.318,0,0,0-11.68,12.29,12.187,12.187,0,0,0,2.01,6.72A15.405,15.405,0,0,0,1299.93,3821.62Zm36.92,9.23h-30.76v-9.23a9.238,9.238,0,0,1,9.22-9.23h12.31a9.24,9.24,0,0,1,9.23,9.23v9.23Zm-34.95-42.37a3.078,3.078,0,0,0-4.35,0l-10.13,10.13-3.97-3.98a3.076,3.076,0,0,0-4.35,4.35l6.15,6.15a3.078,3.078,0,0,0,4.35,0l12.3-12.3A3.078,3.078,0,0,0,1301.9,3788.48Z" transform="translate(-1238 -3732)"/>
</svg>
