<svg xmlns="http://www.w3.org/2000/svg" width="117" height="112" viewBox="0 0 117 112">
  <defs>
    <style>
      .cls-1 {
        fill: #44b5f0;
        fill-rule: evenodd;
      }
    </style>
  </defs>
  <path id="Shape_1_копия_2" data-name="Shape 1 копия 2" class="cls-1" d="M1632.76,3730.58h-50.64v-2.95a2.62,2.62,0,1,0-5.24,0v2.95h-50.64a5.256,5.256,0,0,0-5.24,5.26v4.87a5.256,5.256,0,0,0,5.24,5.26h0.71v59.04a5.264,5.264,0,0,0,5.25,5.26h44.68v7.71l-19.42,14.28a2.622,2.622,0,1,0,3.1,4.23l16.32-12v9.88a2.62,2.62,0,1,0,5.24,0v-9.88l16.32,12a2.57,2.57,0,0,0,1.55.51,2.621,2.621,0,0,0,1.55-4.74l-19.42-14.28v-7.71h44.68a5.264,5.264,0,0,0,5.25-5.26v-59.04h0.71a5.256,5.256,0,0,0,5.24-5.26v-4.87A5.256,5.256,0,0,0,1632.76,3730.58Zm-5.96,74.43h-94.6v-59.04h94.6v59.04h0Zm5.96-64.3H1526.24v-4.87h106.52v4.87h0Zm-78.02,52.3a2.729,2.729,0,0,0,1.93-.81l11.92-12.12,11.65,7.89a2.7,2.7,0,0,0,3.45-.35l17.85-18.15v2.46a2.73,2.73,0,1,0,5.46,0v-9.15a2.751,2.751,0,0,0-2.73-2.78h-9a2.775,2.775,0,0,0,0,5.55h2.41l-16.27,16.54-11.65-7.89a2.689,2.689,0,0,0-3.44.34l-13.51,13.74a2.8,2.8,0,0,0,0,3.92A2.7,2.7,0,0,0,1554.74,3793.01Z" transform="translate(-1521 -3725)"/>
</svg>
