<svg xmlns="http://www.w3.org/2000/svg" width="55" height="31"><path fill-rule="evenodd" fill="#FFF" d="M51.665 28.533c-2.724 1.196-5.922-.033-7.129-2.739-1.105-2.476-.15-5.324 2.103-6.71a4.11 4.11 0 01-.718-1.071c-.625-1.401-.395-2.953.444-4.115a3.546 3.546 0 01-1.227-1.464 3.537 3.537 0 01-.249-2.085c-1.011-.275-1.9-.966-2.356-1.989a3.542 3.542 0 01-.288-1.207 3.614 3.614 0 01-3.377-2.129A3.566 3.566 0 0140.702.307c1.816-.798 3.948.022 4.753 1.825.176.394.261.803.288 1.208a3.613 3.613 0 013.377 2.128c.304.681.375 1.405.25 2.086 1.011.273 1.899.965 2.356 1.988a3.535 3.535 0 01-.102 3.068 4.15 4.15 0 011.982 2.029c.736 1.648.295 3.507-.942 4.689a5.314 5.314 0 011.752 2.129c1.207 2.706-.027 5.88-2.751 7.076zM43.26 3.096a1.206 1.206 0 00-1.584-.608 1.188 1.188 0 00-.612 1.572c.269.603.979.875 1.585.609.605-.265.88-.97.611-1.573zm3.665 3.336a1.206 1.206 0 00-1.584-.609c-.606.266-.881.97-.611 1.573.268.603.978.875 1.584.608.605-.266.88-.969.611-1.572zm2.605 4.074a1.205 1.205 0 00-1.584-.609c-.606.266-.88.971-.611 1.572.268.603.978.876 1.584.609.606-.265.88-.97.611-1.572zm1.881 5.097a1.807 1.807 0 00-2.377-.912 1.78 1.78 0 00-.916 2.358 1.806 1.806 0 002.376.912 1.78 1.78 0 00.917-2.358zm.81 6.818a3.015 3.015 0 00-3.962-1.523 2.972 2.972 0 00-1.528 3.932 3.012 3.012 0 003.961 1.522 2.97 2.97 0 001.529-3.931zm-16.023 4.697c-4.026 1.768-7.548.957-10.656.244-2.721-.624-5.071-1.165-7.633-.041l-5.489 2.41c-4.238 1.86-9.213-.051-11.091-4.261-1.879-4.21.041-9.148 4.279-11.009l20.859-9.156c6.054-2.656 13.162.074 15.845 6.088 2.682 6.013-.06 13.067-6.114 15.725zm3.917-14.763c-2.15-4.818-7.825-6.998-12.675-4.869L6.581 16.642c-3.032 1.332-4.4 4.852-3.057 7.863 1.344 3.012 4.891 4.374 7.923 3.044l5.489-2.41c6.587-2.891 11.702 2.688 18.289-.203 4.851-2.13 7.041-7.761 4.89-12.581z"/></svg>