<svg xmlns="http://www.w3.org/2000/svg" width="55" height="31"><path fill-rule="evenodd" fill="#FF9400" d="M51.06 28.533c-2.724 1.196-5.922-.033-7.13-2.739-1.104-2.476-.149-5.324 2.104-6.71a4.11 4.11 0 01-.718-1.071c-.625-1.401-.395-2.953.444-4.115a3.546 3.546 0 01-1.227-1.464 3.538 3.538 0 01-.25-2.085c-1.011-.275-1.899-.966-2.355-1.989a3.52 3.52 0 01-.288-1.207 3.615 3.615 0 01-3.378-2.129A3.568 3.568 0 0140.096.307c1.817-.798 3.949.022 4.754 1.825.175.394.26.803.287 1.208a3.615 3.615 0 013.378 2.128 3.54 3.54 0 01.25 2.086c1.011.273 1.899.965 2.355 1.988a3.531 3.531 0 01-.101 3.068 4.15 4.15 0 011.982 2.029c.735 1.648.295 3.507-.942 4.689a5.322 5.322 0 011.752 2.129c1.207 2.706-.027 5.88-2.751 7.076zM42.654 3.096a1.206 1.206 0 00-1.584-.608c-.606.266-.88.971-.611 1.572.269.603.979.875 1.584.609.606-.265.88-.97.611-1.573zm3.666 3.336a1.207 1.207 0 00-1.585-.609c-.605.266-.88.97-.611 1.573s.978.875 1.584.608c.606-.266.881-.969.612-1.572zm2.605 4.074a1.205 1.205 0 00-1.584-.609c-.606.266-.88.971-.611 1.572.267.603.978.876 1.584.609.606-.265.879-.97.611-1.572zm1.88 5.097a1.806 1.806 0 00-2.376-.912 1.781 1.781 0 00-.917 2.358 1.807 1.807 0 002.377.912 1.78 1.78 0 00.916-2.358zm.81 6.818a3.014 3.014 0 00-3.961-1.523 2.97 2.97 0 00-1.528 3.932 3.012 3.012 0 003.961 1.522 2.97 2.97 0 001.528-3.931zm-16.022 4.697c-4.026 1.768-7.548.957-10.657.244-2.72-.624-5.07-1.165-7.632-.041l-5.489 2.41C7.577 31.591 2.602 29.68.723 25.47c-1.878-4.21.042-9.148 4.28-11.009l20.859-9.156c6.054-2.656 13.162.074 15.844 6.088 2.683 6.013-.059 13.067-6.113 15.725z"/></svg>