<svg xmlns="http://www.w3.org/2000/svg" width="117" height="112"><path data-name="Shape 1 копия 2" d="M111.76 5.58H61.12V2.63a2.62 2.62 0 10-5.24 0v2.95H5.24A5.256 5.256 0 000 10.84v4.87a5.256 5.256 0 005.24 5.26h.71v59.04a5.264 5.264 0 005.25 5.26h44.68v7.71l-19.42 14.28a2.622 2.622 0 103.1 4.23l16.32-12v9.88a2.62 2.62 0 105.24 0v-9.88l16.32 12a2.57 2.57 0 001.55.51 2.621 2.621 0 001.55-4.74L61.12 92.98v-7.71h44.68a5.264 5.264 0 005.25-5.26V20.97h.71a5.256 5.256 0 005.24-5.26v-4.87a5.256 5.256 0 00-5.24-5.26zm-5.96 74.43H11.2V20.97h94.6v59.04zm5.96-64.3H5.24v-4.87h106.52v4.87zm-78.02 52.3a2.729 2.729 0 001.93-.81l11.92-12.12 11.65 7.89a2.7 2.7 0 003.45-.35l17.85-18.15v2.46a2.73 2.73 0 105.46 0v-9.15A2.751 2.751 0 0083.27 35h-9a2.775 2.775 0 000 5.55h2.41L60.41 57.09 48.76 49.2a2.689 2.689 0 00-3.44.34L31.81 63.28a2.8 2.8 0 000 3.92 2.7 2.7 0 001.93.81z" fill="#44b5f0" fill-rule="evenodd"/></svg>