<svg xmlns="http://www.w3.org/2000/svg" width="34.1" height="33.97"><path data-name="Forma 1" d="M24.7-.01H9.42a9.4 9.4 0 00-9.4 9.38V24.6a9.4 9.4 0 009.4 9.38H24.7a9.4 9.4 0 009.41-9.38V9.37A9.406 9.406 0 0024.7-.01zm6.39 24.61a6.391 6.391 0 01-6.39 6.37H9.42a6.382 6.382 0 01-6.38-6.37V9.37a6.374 6.374 0 016.38-6.36H24.7a6.383 6.383 0 016.39 6.36V24.6zM17.06 8.23a8.755 8.755 0 108.79 8.76 8.781 8.781 0 00-8.79-8.76zm0 14.5a5.745 5.745 0 115.76-5.74 5.764 5.764 0 01-5.76 5.74zm9.16-17.06a2.215 2.215 0 100 4.43 2.27 2.27 0 001.57-.65 2.209 2.209 0 000-3.13 2.252 2.252 0 00-1.57-.65z" fill="#fff" fill-rule="evenodd"/></svg>