<svg xmlns="http://www.w3.org/2000/svg" width="35.69" height="21.03"><path data-name="Forma 1" d="M35.5 19l-.12-.24a19.083 19.083 0 00-3.55-4.25l-.04-.04-.02-.02-.02-.02h-.02c-.79-.78-1.29-1.3-1.5-1.57a1.514 1.514 0 01-.26-1.56 14.524 14.524 0 011.67-2.52c.51-.68.91-1.22 1.21-1.63q3.21-4.425 2.78-5.65l-.11-.19a1.028 1.028 0 00-.57-.32 3.01 3.01 0 00-1.19-.05l-5.35.04a.67.67 0 00-.37.01l-.25.06-.09.05-.07.06a.635.635 0 00-.21.2 1.48 1.48 0 00-.18.33 33.2 33.2 0 01-1.99 4.33c-.46.79-.88 1.48-1.27 2.06a9.506 9.506 0 01-.96 1.29 5.778 5.778 0 01-.71.66.631.631 0 01-.48.21c-.11-.02-.22-.05-.32-.07a1.368 1.368 0 01-.42-.47 2.388 2.388 0 01-.21-.75 6.013 6.013 0 01-.06-.78c-.01-.22-.01-.53.01-.92s.01-.67.01-.81q0-.735.03-1.59c.02-.57.04-1.02.05-1.35s.02-.68.02-1.06a4.742 4.742 0 00-.07-.87 3.412 3.412 0 00-.19-.62 1.086 1.086 0 00-.38-.46 2.3 2.3 0 00-.63-.26 12.663 12.663 0 00-2.51-.25 11.74 11.74 0 00-4.44.47 2.509 2.509 0 00-.7.57c-.23.28-.26.44-.1.46a2.247 2.247 0 011.58.83l.12.23a4.415 4.415 0 01.26.88 9.473 9.473 0 01.16 1.4 16.043 16.043 0 010 2.41c-.06.66-.12 1.18-.17 1.55a3.464 3.464 0 01-.25.91 4.252 4.252 0 01-.23.42.467.467 0 01-.09.1 1.426 1.426 0 01-.5.09 1.111 1.111 0 01-.63-.27 4.774 4.774 0 01-.78-.74 10.992 10.992 0 01-.9-1.31c-.33-.57-.68-1.23-1.04-2l-.29-.56c-.19-.36-.44-.88-.77-1.57s-.6-1.34-.85-1.99a1.289 1.289 0 00-.45-.61L7 1.19a1.306 1.306 0 00-.3-.16 1.551 1.551 0 00-.42-.12l-5.1.03a1.289 1.289 0 00-1.06.37l-.07.11a.629.629 0 00-.06.31 1.468 1.468 0 00.12.52c.74 1.8 1.55 3.55 2.42 5.23s1.63 3.03 2.28 4.05 1.3 1.99 1.97 2.9 1.11 1.5 1.33 1.75a7.557 7.557 0 00.51.58l.46.46a10.9 10.9 0 001.31 1.1 21.31 21.31 0 001.92 1.27 9.891 9.891 0 002.44 1.02 8.271 8.271 0 002.71.32h2.14a1.463 1.463 0 00.98-.42l.08-.1a1.685 1.685 0 00.14-.36 2.146 2.146 0 00.06-.53 6.976 6.976 0 01.12-1.49 4.09 4.09 0 01.32-.99 2.3 2.3 0 01.4-.57 1.89 1.89 0 01.31-.28 1.125 1.125 0 00.15-.07 1.16 1.16 0 011.05.3 6.33 6.33 0 011.14 1.12c.35.44.77.93 1.27 1.49a9.248 9.248 0 001.3 1.23l.37.23a4.752 4.752 0 00.97.42 2.038 2.038 0 001.04.1l4.76-.08a2.073 2.073 0 001.09-.24.965.965 0 00.47-.53 1.608 1.608 0 00.01-.66 3.347 3.347 0 00-.13-.5z" fill="#fff" fill-rule="evenodd"/></svg>