<svg xmlns="http://www.w3.org/2000/svg" width="117" height="112"><path d="M111.76 5.58H61.12V2.63a2.62 2.62 0 10-5.24 0v2.95H5.24A5.256 5.256 0 000 10.84v4.87a5.256 5.256 0 005.24 5.26h.71v59.04a5.264 5.264 0 005.25 5.26h44.68v7.71l-19.42 14.28a2.622 2.622 0 103.1 4.23l16.32-12v9.88a2.62 2.62 0 105.24 0v-9.88l16.32 12a2.57 2.57 0 001.55.51 2.621 2.621 0 001.55-4.74L61.12 92.98v-7.71h44.68a5.264 5.264 0 005.25-5.26V20.97h.71a5.256 5.256 0 005.24-5.26v-4.87a5.256 5.256 0 00-5.24-5.26zm-5.96 74.43H11.2V20.97h94.6v59.04zm5.96-64.3H5.24v-4.87h106.52v4.87zM58.45 28.57a2.366 2.366 0 00-2.36 2.37v18.13H38a2.364 2.364 0 00-2.36 2.36 22.81 22.81 0 1022.81-22.86zm0 40.99A18.137 18.137 0 0140.51 53.8h17.94a2.366 2.366 0 002.36-2.37V33.46a18.13 18.13 0 01-2.36 36.1zm-7.98-43.43a17.306 17.306 0 00-17.27 17.3 2.366 2.366 0 002.36 2.37h14.91a2.366 2.366 0 002.36-2.37V28.49a2.364 2.364 0 00-2.36-2.36zm-2.36 14.94h-9.97a12.6 12.6 0 019.97-9.99v9.99z" fill="#44b5f0" fill-rule="evenodd"/></svg>