<svg xmlns="http://www.w3.org/2000/svg" width="146" height="100"><path data-name="Прямоугольник, скругл. углы 602" d="M125.11 78.82H89.84a3.79 3.79 0 00-3.81 3.78l-.03.71-19.39-.03v-.68a3.8 3.8 0 00-3.82-3.78H27.58a3.78 3.78 0 100 7.56h32.11a7.683 7.683 0 006.95 4.46H86a7.592 7.592 0 006.94-4.46h32.14a3.8 3.8 0 003.82-3.78 3.754 3.754 0 00-3.79-3.78zm16.8-3.56h-6.88V9.92a1.343 1.343 0 00-.03-.35A9.935 9.935 0 00125.18.5H20.52A9.483 9.483 0 0011 9.92v65.34H4.15A3.63 3.63 0 00.5 78.87v6.81A13.9 13.9 0 0014.47 99.5h117.06a13.9 13.9 0 0013.97-13.82v-6.81a3.542 3.542 0 00-3.59-3.61zm-3.62 10.42a6.673 6.673 0 01-6.7 6.63H14.5a6.7 6.7 0 01-6.73-6.63v-3.2h6.85a3.624 3.624 0 003.65-3.61V9.92a2.243 2.243 0 012.25-2.23h104.66a2.732 2.732 0 012.58 2.43v68.72a3.643 3.643 0 003.65 3.61h6.88v3.23zM67.31 23.59h36.66a2.006 2.006 0 012 2v1.5a2 2 0 01-2 2H67.31a2 2 0 01-2-2v-1.5a2.006 2.006 0 012-2zm0 12.1h44.35a2 2 0 012 2v1.5a2.006 2.006 0 01-2 2H67.31a2.006 2.006 0 01-2-2v-1.5a2 2 0 012-2zm0 12.12h25.66a2.006 2.006 0 012 2v1.5a2 2 0 01-2 2H67.31a2 2 0 01-2-2v-1.5a2.006 2.006 0 012-2zM28.87 23.59h25.66a2 2 0 012 2v14.72a1.993 1.993 0 01-2 2H28.87a2 2 0 01-2-2V25.59a2.006 2.006 0 012-2z" fill="#44b5f0" stroke="#fff" fill-rule="evenodd"/></svg>