<svg xmlns="http://www.w3.org/2000/svg" width="105" height="105"><path data-name="Forma 1" d="M93.76 74.81a12.28 12.28 0 00-4.44-17.54 37.863 37.863 0 00-15.48-25.86A15.42 15.42 0 0062.8 19.03a12.3 12.3 0 10-20.6 0 15.42 15.42 0 00-11.04 12.38 37.863 37.863 0 00-15.48 25.86 12.28 12.28 0 00-4.44 17.54A15.394 15.394 0 000 89.62v12.3A3.081 3.081 0 003.08 105h36.91a3.081 3.081 0 003.08-3.08v-4.3a44.1 44.1 0 0018.86 0v4.3a3.081 3.081 0 003.08 3.08h36.91a3.081 3.081 0 003.08-3.08v-12.3a15.394 15.394 0 00-11.24-14.81zm-4.14-6.72a6.155 6.155 0 11-6.15-6.16 6.158 6.158 0 016.15 6.16zM52.5 6.15a6.155 6.155 0 11-6.15 6.15 6.158 6.158 0 016.15-6.15zM37.12 33.84a9.24 9.24 0 019.23-9.23h12.3a9.24 9.24 0 019.23 9.23v9.23H37.12v-9.23zM21.53 61.93a6.155 6.155 0 11-6.15 6.16 6.163 6.163 0 016.15-6.16zm15.38 36.92H6.15v-9.23a9.24 9.24 0 019.23-9.23h12.31a9.238 9.238 0 019.22 9.23v9.23zm25.02-9.23v1.64a36.763 36.763 0 01-18.86 0v-1.64a15.405 15.405 0 00-11.24-14.81 12.187 12.187 0 002.01-6.72A12.318 12.318 0 0022.16 55.8a32.252 32.252 0 018.81-16.21v6.55a3.073 3.073 0 003.07 3.08h36.92a3.073 3.073 0 003.07-3.08v-6.55a32.252 32.252 0 018.81 16.21 12.318 12.318 0 00-11.68 12.29 12.187 12.187 0 002.01 6.72 15.405 15.405 0 00-11.24 14.81zm36.92 9.23H68.09v-9.23a9.238 9.238 0 019.22-9.23h12.31a9.24 9.24 0 019.23 9.23v9.23zM63.9 56.48a3.078 3.078 0 00-4.35 0L49.42 66.61l-3.97-3.98a3.076 3.076 0 00-4.35 4.35l6.15 6.15a3.078 3.078 0 004.35 0l12.3-12.3a3.078 3.078 0 000-4.35z" fill="#44b5f0" fill-rule="evenodd"/></svg>